<?xml version="1.0" encoding="UTF-8"?>
<svg version="1.1" xmlns="http://www.w3.org/2000/svg" width="60" height="60">
<path d="M0,0 L12,0 L12,4 L11,4 L11,5 L2,5 L2,6 L-1,6 L-1,7 L-2,7 L-2,8 L-4,8 L-4,9 L-5,9 L-5,10 L-6,10 L-6,12 L-7,12 L-7,13 L-8,13 L-8,16 L-9,16 L-9,25 L-8,25 L-8,28 L-7,28 L-7,30 L-6,30 L-6,31 L-5,31 L-5,32 L-4,32 L-4,33 L-2,33 L-2,34 L-1,34 L-1,35 L2,35 L2,36 L11,36 L11,35 L13,35 L13,34 L12,34 L12,32 L11,32 L11,31 L10,31 L10,30 L9,30 L9,28 L8,28 L8,27 L7,27 L7,25 L6,25 L6,26 L5,26 L5,28 L4,28 L4,29 L3,29 L3,31 L2,31 L2,32 L-1,32 L-1,31 L-3,31 L-3,29 L-2,29 L-2,28 L-1,28 L-1,26 L0,26 L0,25 L1,25 L1,23 L2,23 L2,22 L3,22 L3,21 L10,21 L10,22 L11,22 L11,24 L12,24 L12,25 L13,25 L13,27 L14,27 L14,28 L15,28 L15,30 L16,30 L16,31 L17,31 L17,33 L18,33 L18,34 L19,34 L19,35 L20,35 L20,37 L19,37 L19,38 L17,38 L17,39 L15,39 L15,40 L13,40 L13,41 L0,41 L0,40 L-3,40 L-3,39 L-4,39 L-4,38 L-6,38 L-6,37 L-7,37 L-7,36 L-8,36 L-8,35 L-9,35 L-9,34 L-10,34 L-10,33 L-11,33 L-11,31 L-12,31 L-12,29 L-13,29 L-13,27 L-14,27 L-14,14 L-13,14 L-13,12 L-12,12 L-12,10 L-11,10 L-11,8 L-10,8 L-10,7 L-9,7 L-9,6 L-8,6 L-8,5 L-7,5 L-7,4 L-6,4 L-6,3 L-4,3 L-4,2 L-3,2 L-3,1 L0,1 Z " fill="#00FEEE" transform="translate(25,10)"/>
<path d="M0,0 L2,0 L2,1 L4,1 L4,2 L5,2 L5,3 L6,3 L6,4 L7,4 L7,5 L8,5 L8,7 L9,7 L9,8 L10,8 L10,10 L11,10 L11,13 L12,13 L12,24 L11,24 L11,27 L10,27 L10,29 L9,29 L9,31 L7,31 L7,30 L6,30 L6,29 L4,29 L4,27 L5,27 L5,25 L6,25 L6,22 L7,22 L7,15 L6,15 L6,13 L5,13 L5,10 L4,10 L4,9 L3,9 L3,7 L2,7 L2,8 L1,8 L1,9 L0,9 L0,11 L-1,11 L-1,12 L-2,12 L-2,14 L-3,14 L-3,15 L-4,15 L-4,17 L-5,17 L-5,18 L-12,18 L-12,17 L-13,17 L-13,16 L-14,16 L-14,14 L-16,14 L-16,23 L-18,23 L-18,24 L-21,24 L-21,21 L-22,21 L-22,16 L-21,16 L-21,13 L-20,13 L-20,11 L-19,11 L-19,10 L-18,10 L-18,9 L-17,9 L-17,8 L-16,8 L-16,7 L-13,7 L-13,8 L-12,8 L-12,10 L-11,10 L-11,11 L-10,11 L-10,13 L-9,13 L-9,14 L-8,14 L-8,12 L-7,12 L-7,11 L-6,11 L-6,9 L-5,9 L-5,8 L-4,8 L-4,7 L-3,7 L-3,5 L-2,5 L-2,4 L-1,4 L-1,2 L0,2 Z " fill="#00FEEE" transform="translate(40,12)"/>
<path d="M0,0 L1,0 L1,2 L2,2 L2,3 L3,3 L3,5 L4,5 L4,8 L5,8 L5,19 L4,19 L4,22 L3,22 L3,24 L2,24 L2,26 L0,26 L0,25 L-1,25 L-1,24 L-3,24 L-3,22 L-2,22 L-2,20 L-1,20 L-1,17 L0,17 L0,10 L-1,10 L-1,8 L-2,8 L-2,5 L-3,5 L-3,3 L-2,3 L-2,2 L-1,2 L-1,1 L0,1 Z " fill="#FC0342" transform="translate(47,17)"/>
<path d="M0,0 L1,0 L1,2 L2,2 L2,3 L3,3 L3,5 L4,5 L4,7 L2,7 L2,8 L0,8 L0,9 L-1,9 L-1,8 L-2,8 L-2,5 L-3,5 L-3,3 L-2,3 L-2,2 L-1,2 L-1,1 L0,1 Z " fill="#A05F80" transform="translate(47,17)"/>
<path d="M0,0 L1,0 L1,1 L0,1 Z " fill="#00FFEF" transform="translate(45,47)"/>
<path d="M0,0 L1,0 L1,1 L0,1 Z " fill="#00FFEF" transform="translate(20,39)"/>
<path d="M0,0 L1,0 L1,1 L0,1 Z " fill="#00FFEF" transform="translate(36,15)"/>
</svg>
