<?xml version="1.0" encoding="UTF-8"?>
<svg version="1.1" xmlns="http://www.w3.org/2000/svg" width="80" height="80">
<path d="M0,0 L18,0 L18,1 L22,1 L22,2 L24,2 L24,3 L26,3 L26,4 L28,4 L28,5 L30,5 L30,6 L32,6 L32,7 L33,7 L33,8 L34,8 L34,9 L36,9 L36,10 L37,10 L37,11 L38,11 L38,12 L39,12 L39,14 L40,14 L40,15 L41,15 L41,16 L42,16 L42,17 L43,17 L43,19 L44,19 L44,21 L45,21 L45,23 L46,23 L46,25 L47,25 L47,27 L48,27 L48,31 L49,31 L49,49 L48,49 L48,53 L47,53 L47,55 L46,55 L46,57 L45,57 L45,59 L44,59 L44,61 L43,61 L43,63 L42,63 L42,64 L41,64 L41,65 L40,65 L40,66 L39,66 L39,68 L38,68 L38,69 L37,69 L37,70 L36,70 L36,71 L34,71 L34,72 L33,72 L33,73 L32,73 L32,74 L30,74 L30,75 L28,75 L28,76 L26,76 L26,77 L24,77 L24,78 L22,78 L22,79 L18,79 L18,80 L0,80 L0,79 L-4,79 L-4,78 L-6,78 L-6,77 L-8,77 L-8,76 L-10,76 L-10,75 L-12,75 L-12,74 L-14,74 L-14,73 L-15,73 L-15,72 L-16,72 L-16,71 L-18,71 L-18,70 L-19,70 L-19,69 L-20,69 L-20,68 L-21,68 L-21,66 L-22,66 L-22,65 L-23,65 L-23,64 L-24,64 L-24,63 L-25,63 L-25,61 L-26,61 L-26,59 L-27,59 L-27,57 L-28,57 L-28,55 L-29,55 L-29,53 L-30,53 L-30,49 L-31,49 L-31,31 L-30,31 L-30,27 L-29,27 L-29,25 L-28,25 L-28,23 L-27,23 L-27,21 L-26,21 L-26,19 L-25,19 L-25,17 L-24,17 L-24,16 L-23,16 L-23,15 L-22,15 L-22,14 L-21,14 L-21,12 L-20,12 L-20,11 L-19,11 L-19,10 L-18,10 L-18,9 L-16,9 L-16,8 L-15,8 L-15,7 L-14,7 L-14,6 L-12,6 L-12,5 L-10,5 L-10,4 L-8,4 L-8,3 L-6,3 L-6,2 L-4,2 L-4,1 L0,1 Z " fill="#000404" transform="translate(31,0)"/>
<path d="M0,0 L15,0 L15,1 L16,1 L16,4 L15,4 L15,7 L1,7 L1,8 L-2,8 L-2,9 L-4,9 L-4,10 L-6,10 L-6,11 L-7,11 L-7,12 L-9,12 L-9,13 L-10,13 L-10,14 L-11,14 L-11,15 L-12,15 L-12,16 L-13,16 L-13,17 L-14,17 L-14,19 L-15,19 L-15,20 L-16,20 L-16,22 L-17,22 L-17,24 L-18,24 L-18,27 L-19,27 L-19,39 L-18,39 L-18,42 L-17,42 L-17,45 L-16,45 L-16,47 L-15,47 L-15,48 L-14,48 L-14,50 L-13,50 L-13,51 L-12,51 L-12,52 L-11,52 L-11,53 L-10,53 L-10,54 L-9,54 L-9,55 L-7,55 L-7,56 L-6,56 L-6,57 L-4,57 L-4,58 L-2,58 L-2,59 L1,59 L1,60 L13,60 L13,59 L16,59 L16,58 L19,58 L19,55 L18,55 L18,54 L17,54 L17,52 L16,52 L16,51 L15,51 L15,50 L14,50 L14,48 L13,48 L13,47 L12,47 L12,45 L11,45 L11,44 L10,44 L10,42 L9,42 L9,41 L8,41 L8,40 L7,40 L7,41 L6,41 L6,42 L5,42 L5,44 L4,44 L4,45 L3,45 L3,47 L2,47 L2,48 L1,48 L1,50 L0,50 L0,51 L-1,51 L-1,52 L-3,52 L-3,51 L-4,51 L-4,50 L-6,50 L-6,49 L-7,49 L-7,48 L-6,48 L-6,47 L-5,47 L-5,45 L-4,45 L-4,44 L-3,44 L-3,42 L-2,42 L-2,41 L-1,41 L-1,39 L0,39 L0,38 L1,38 L1,37 L2,37 L2,35 L13,35 L13,36 L14,36 L14,38 L15,38 L15,39 L16,39 L16,41 L17,41 L17,42 L18,42 L18,44 L19,44 L19,45 L20,45 L20,47 L21,47 L21,48 L22,48 L22,50 L23,50 L23,51 L24,51 L24,53 L25,53 L25,54 L26,54 L26,55 L27,55 L27,57 L28,57 L28,58 L29,58 L29,60 L27,60 L27,61 L26,61 L26,62 L24,62 L24,63 L23,63 L23,64 L20,64 L20,65 L17,65 L17,66 L15,66 L15,67 L0,67 L0,66 L-3,66 L-3,65 L-6,65 L-6,64 L-8,64 L-8,63 L-9,63 L-9,62 L-11,62 L-11,61 L-12,61 L-12,60 L-14,60 L-14,59 L-15,59 L-15,58 L-16,58 L-16,57 L-17,57 L-17,56 L-18,56 L-18,55 L-19,55 L-19,53 L-20,53 L-20,52 L-21,52 L-21,50 L-22,50 L-22,49 L-23,49 L-23,46 L-24,46 L-24,43 L-25,43 L-25,40 L-26,40 L-26,26 L-25,26 L-25,23 L-24,23 L-24,20 L-23,20 L-23,18 L-22,18 L-22,17 L-21,17 L-21,15 L-20,15 L-20,14 L-19,14 L-19,12 L-18,12 L-18,11 L-17,11 L-17,10 L-16,10 L-16,9 L-15,9 L-15,8 L-14,8 L-14,7 L-12,7 L-12,6 L-11,6 L-11,5 L-9,5 L-9,4 L-8,4 L-8,3 L-6,3 L-6,2 L-3,2 L-3,1 L0,1 Z " fill="#00F5EB" transform="translate(33,7)"/>
<path d="M0,0 L2,0 L2,1 L3,1 L3,2 L4,2 L4,3 L6,3 L6,4 L7,4 L7,5 L8,5 L8,6 L9,6 L9,7 L10,7 L10,8 L11,8 L11,9 L10,9 L10,10 L8,10 L8,11 L7,11 L7,12 L6,12 L6,13 L5,13 L5,12 L4,12 L4,11 L3,11 L3,10 L1,10 L1,12 L0,12 L0,13 L-1,13 L-1,15 L-2,15 L-2,16 L-3,16 L-3,18 L-4,18 L-4,19 L-5,19 L-5,21 L-6,21 L-6,22 L-7,22 L-7,24 L-8,24 L-8,25 L-9,25 L-9,27 L-10,27 L-10,28 L-11,28 L-11,29 L-20,29 L-20,28 L-21,28 L-21,27 L-22,27 L-22,25 L-23,25 L-23,24 L-24,24 L-24,22 L-25,22 L-25,21 L-27,21 L-27,23 L-28,23 L-28,25 L-29,25 L-29,34 L-28,34 L-28,36 L-30,36 L-30,37 L-32,37 L-32,38 L-35,38 L-35,36 L-36,36 L-36,23 L-35,23 L-35,21 L-34,21 L-34,19 L-33,19 L-33,18 L-32,18 L-32,16 L-31,16 L-31,15 L-30,15 L-30,14 L-29,14 L-29,13 L-27,13 L-27,12 L-26,12 L-26,11 L-24,11 L-24,12 L-23,12 L-23,13 L-22,13 L-22,15 L-21,15 L-21,16 L-20,16 L-20,18 L-19,18 L-19,19 L-18,19 L-18,21 L-17,21 L-17,22 L-16,22 L-16,23 L-15,23 L-15,22 L-14,22 L-14,21 L-13,21 L-13,19 L-12,19 L-12,18 L-11,18 L-11,16 L-10,16 L-10,15 L-9,15 L-9,13 L-8,13 L-8,12 L-7,12 L-7,11 L-6,11 L-6,9 L-5,9 L-5,8 L-4,8 L-4,6 L-3,6 L-3,5 L-2,5 L-2,3 L-1,3 L-1,2 L0,2 Z " fill="#00F3E8" transform="translate(56,11)"/>
<path d="M0,0 L5,0 L5,2 L6,2 L6,15 L5,15 L5,19 L4,19 L4,22 L3,22 L3,25 L2,25 L2,27 L1,27 L1,28 L0,28 L0,29 L-1,29 L-1,28 L-2,28 L-2,27 L-4,27 L-4,26 L-5,26 L-5,23 L-4,23 L-4,21 L-3,21 L-3,19 L-2,19 L-2,16 L-1,16 L-1,3 L-2,3 L-2,1 L0,1 Z " fill="#F50140" transform="translate(68,31)"/>
<path d="M0,0 L1,0 L1,1 L2,1 L2,2 L3,2 L3,4 L4,4 L4,5 L5,5 L5,6 L3,6 L3,7 L1,7 L1,8 L-1,8 L-1,9 L-2,9 L-2,7 L-3,7 L-3,5 L-4,5 L-4,3 L-3,3 L-3,2 L-2,2 L-2,1 L0,1 Z " fill="#F1043C" transform="translate(66,20)"/>
<path d="M0,0 L2,0 L2,1 L3,1 L3,5 L-1,5 L-1,6 L-3,6 L-3,5 L-4,5 L-4,2 L-2,2 L-2,1 L0,1 Z " fill="#13E1E1" transform="translate(69,26)"/>
</svg>
